HIERARCHY
ROOT Hips
{
	OFFSET 40.843800 -3.744215 95.364197
	CHANNELS 6 Xposition Yposition Zposition Xrotation Yrotation Zrotation
	JOINT spine
	{
		OFFSET 0.000000 -0.467660 8.132492
		CHANNELS 3 Xrotation Yrotation Zrotation
		JOINT spine1
		{
			OFFSET 0.000000 -0.000002 10.349800
			CHANNELS 3 Xrotation Yrotation Zrotation
			JOINT spine2
			{
				OFFSET 0.000000 -0.000001 9.916992
				CHANNELS 3 Xrotation Yrotation Zrotation
				JOINT Neck
				{
					OFFSET 0.000000 -1.213904 25.461006
					CHANNELS 3 Xrotation Yrotation Zrotation
					JOINT Head
					{
						OFFSET 0.000000 -0.000001 7.692444
						CHANNELS 3 Xrotation Yrotation Zrotation
						End Site
						{
							OFFSET 0.000000 6.140627 18.619995
						}
					}
				}
				JOINT RightShoulder
				{
					OFFSET -4.175751 0.581443 10.709602
					CHANNELS 3 Xrotation Yrotation Zrotation
					JOINT RightArm
					{
						OFFSET 0.000000 -0.000002 14.046600
						CHANNELS 3 Xrotation Yrotation Zrotation
						JOINT RightArmRoll
						{
							OFFSET 0.000000 -0.000001 7.090973
							CHANNELS 3 Xrotation Yrotation Zrotation
							JOINT RightForeArm
							{
								OFFSET 0.000000 -0.000003 20.653503
								CHANNELS 3 Xrotation Yrotation Zrotation
								JOINT RightForeArmRoll
								{
									OFFSET 0.000000 -0.000001 7.957184
									CHANNELS 3 Xrotation Yrotation Zrotation
									JOINT RightHand
									{
										OFFSET 0.000000 -0.000003 15.968292
										CHANNELS 3 Xrotation Yrotation Zrotation
										End Site
										{
											OFFSET 0.000000 0.000000 0.100006
										}
									}
								}
							}
						}
					}
				}
				JOINT LeftShoulder
				{
					OFFSET 4.175751 0.581443 10.709602
					CHANNELS 3 Xrotation Yrotation Zrotation
					JOINT LeftArm
					{
						OFFSET 0.000000 -0.000002 14.046600
						CHANNELS 3 Xrotation Yrotation Zrotation
						JOINT LeftArmRoll
						{
							OFFSET 0.000000 -0.000001 7.090973
							CHANNELS 3 Xrotation Yrotation Zrotation
							JOINT LeftForeArm
							{
								OFFSET 0.000000 -0.000003 20.653503
								CHANNELS 3 Xrotation Yrotation Zrotation
								JOINT LeftForeArmRoll
								{
									OFFSET 0.000000 -0.000001 7.957184
									CHANNELS 3 Xrotation Yrotation Zrotation
									JOINT LeftHand
									{
										OFFSET 0.000000 -0.000003 15.968292
										CHANNELS 3 Xrotation Yrotation Zrotation
										End Site
										{
											OFFSET 0.000000 0.000000 0.100006
										}
									}
								}
							}
						}
					}
				}
			}
		}
	}
	JOINT RightUpLeg
	{
		OFFSET -7.208340 1.108840 -1.321823
		CHANNELS 3 Xrotation Yrotation Zrotation
		JOINT RightUpLegRoll
		{
			OFFSET 0.000000 -0.000003 18.723801
			CHANNELS 3 Xrotation Yrotation Zrotation
			JOINT RightLeg
			{
				OFFSET 0.000000 0.000004 -23.186600
				CHANNELS 3 Xrotation Yrotation Zrotation
				JOINT RightLegRoll
				{
					OFFSET 0.000000 -0.000004 23.262398
					CHANNELS 3 Xrotation Yrotation Zrotation
					JOINT RightFoot
					{
						OFFSET 0.000000 -0.000003 19.362099
						CHANNELS 3 Xrotation Yrotation Zrotation
						JOINT RightToeBase
						{
							OFFSET 0.000000 -0.000003 16.185699
							CHANNELS 3 Xrotation Yrotation Zrotation
							End Site
							{
								OFFSET 0.006859 0.903521 7.838623
							}
						}
					}
				}
			}
		}
	}
	JOINT LeftUpLeg
	{
		OFFSET 7.208340 1.108840 -1.321823
		CHANNELS 3 Xrotation Yrotation Zrotation
		JOINT LeftUpLegRoll
		{
			OFFSET 0.000000 -0.000003 18.723900
			CHANNELS 3 Xrotation Yrotation Zrotation
			JOINT LeftLeg
			{
				OFFSET 0.000000 -0.000004 23.186501
				CHANNELS 3 Xrotation Yrotation Zrotation
				JOINT LeftLegRoll
				{
					OFFSET 0.000000 -0.000004 23.477493
					CHANNELS 3 Xrotation Yrotation Zrotation
					JOINT LeftFoot
					{
						OFFSET 0.000000 -0.000003 19.147003
						CHANNELS 3 Xrotation Yrotation Zrotation
						JOINT LeftToeBase
						{
							OFFSET 0.000000 -0.000003 16.185699
							CHANNELS 3 Xrotation Yrotation Zrotation
							End Site
							{
								OFFSET -0.030746 0.903521 7.838623
							}
						}
					}
				}
			}
		}
	}
}
MOTION
Frames: 7
Frame Time: 0.041667
47.341099 2.899406 96.007996 -4.263850 4.222092 17.710798 -0.037581 -1.109070 -1.317788 3.903089 -2.229392 -2.625656 5.547961 -2.260671 -2.598771 -8.547870 -36.997335 -12.859083 10.275813 30.407995 -10.119426 -58.015681 -56.194616 -68.638244 -111.556346 -133.875355 -143.993092 0.000007 -0.000020 0.000003 129.403903 6.202366 -31.156902 -0.000009 0.000004 -2.999999 -5.000219 -7.998940 0.000126 9.954465 22.311113 -20.144120 -89.851835 198.536729 71.970974 0.000001 -0.000021 0.000007 -0.163260 -11.219160 0.515243 -0.000000 -0.000004 3.062430 -5.000233 7.998794 -0.000138 -3.442259 -180.921357 -0.338184 -179.999991 0.000005 -0.945007 173.151689 -2.380916 -0.389866 -0.000002 0.000001 0.019070 67.676834 6.627825 2.880532 25.456948 -7.355613 0.005699 3.335648 171.143790 -4.602901 -0.000020 -0.000005 -0.922964 -15.844152 2.084042 0.714080 -0.000002 0.000004 -0.548448 79.326124 -6.595167 -2.255084 25.893845 7.347276 -0.654654 
47.341904 2.885645 96.009392 -4.256548 4.286476 17.656034 -0.027984 -1.133769 -1.329023 3.921567 -2.279096 -2.647677 5.566450 -2.310644 -2.620208 -8.947348 -36.955534 -12.913982 10.518663 30.575325 -10.153682 -58.209126 -56.044240 -68.895852 -111.740843 -133.672567 -144.479606 0.000006 -0.000019 0.000001 129.798210 6.250521 -31.626494 -0.000008 0.000005 -2.999998 -5.000221 -7.998940 0.000124 9.894834 22.013898 -20.155579 -90.021210 198.487087 71.909038 0.000002 -0.000023 0.000002 -0.122378 -11.336581 0.499395 0.000003 -0.000004 3.064244 -5.000235 7.998793 -0.000139 -3.446779 -180.991216 -0.378713 -179.999991 0.000005 -0.945006 173.181099 -2.374105 -0.386801 -0.000002 0.000001 0.019821 67.683937 6.643337 2.841174 25.456948 -7.355613 0.005699 3.326473 171.088807 -4.640178 -0.000020 -0.000005 -0.919508 -15.862150 2.092091 0.715552 -0.000002 0.000004 -0.548486 79.354777 -6.594777 -2.255578 25.893549 7.347194 -0.654248 
47.353298 2.878793 96.004890 -4.245982 4.344656 17.595845 -0.019607 -1.156400 -1.340185 3.937635 -2.324645 -2.669625 5.582546 -2.356442 -2.641601 -9.321048 -36.920693 -12.959272 10.741333 30.744150 -10.180765 -58.395659 -55.901666 -69.144641 -111.933837 -133.468904 -144.968074 0.000006 -0.000017 0.000001 130.183228 6.294477 -32.089421 -0.000008 0.000005 -3.000001 -5.000218 -7.998941 0.000125 9.844498 21.730416 -20.174562 -90.190210 198.424358 71.845148 0.000002 -0.000023 0.000007 -0.095147 -11.447587 0.483581 0.000001 -0.000006 3.065858 -5.000233 7.998792 -0.000136 -3.456747 -181.052114 -0.414537 -179.999991 0.000005 -0.945005 173.205060 -2.368268 -0.385097 -0.000002 0.000001 0.020499 67.688978 6.657010 2.806576 25.456950 -7.355613 0.005700 3.319715 171.043824 -4.672167 -0.000020 -0.000005 -0.916512 -15.874852 2.100916 0.716855 -0.000002 0.000003 -0.548190 79.379181 -6.594371 -2.255926 25.894243 7.347119 -0.655301 
47.355202 2.868665 96.011200 -4.231788 4.395748 17.529935 -0.012560 -1.176619 -1.351298 3.951101 -2.365351 -2.691476 5.596014 -2.397413 -2.662961 -9.667643 -36.895149 -12.995286 10.942390 30.915516 -10.200280 -58.576406 -55.767777 -69.385891 -112.136912 -133.264408 -145.460066 0.000005 -0.000018 0.000002 130.559080 6.333592 -32.547351 -0.000008 0.000005 -3.000001 -5.000224 -7.998946 0.000123 9.805498 21.461452 -20.203005 -90.359550 198.347409 71.777830 0.000001 -0.000022 0.000005 -0.085714 -11.553092 0.467091 0.000001 -0.000006 3.067245 -5.000231 7.998794 -0.000138 -3.472885 -181.102001 -0.445016 -179.999991 0.000005 -0.945006 173.222709 -2.363390 -0.383779 -0.000002 0.000001 0.021099 67.691778 6.668685 2.776916 25.456953 -7.355613 0.005700 3.315644 171.008826 -4.698240 -0.000020 -0.000004 -0.914041 -15.881556 2.110600 0.717968 -0.000004 0.000003 -0.547521 79.398606 -6.594075 -2.256170 25.895957 7.347039 -0.657972 
47.366905 2.847577 96.008896 -4.213279 4.440792 17.456714 -0.007129 -1.194990 -1.362652 3.961357 -2.402323 -2.713882 5.606276 -2.434642 -2.684927 -9.979982 -36.871171 -13.015083 11.116324 31.085547 -10.206901 -58.747038 -55.641620 -69.614162 -112.346394 -133.058369 -145.955474 0.000006 -0.000018 0.000003 130.924850 6.371660 -33.001603 -0.000008 0.000003 -2.999999 -5.000223 -7.998943 0.000121 9.774578 21.211771 -20.235991 -90.527833 198.250325 71.715914 0.000002 -0.000022 0.000007 -0.086504 -11.645390 0.452455 0.000001 -0.000006 3.068400 -5.000232 7.998794 -0.000136 -3.496131 -181.143884 -0.470925 -179.999991 0.000005 -0.945007 173.234211 -2.358482 -0.381720 -0.000002 0.000001 0.021618 67.692065 6.678486 2.752038 25.456952 -7.355614 0.005699 3.313979 170.984852 -4.718932 -0.000020 -0.000004 -0.912035 -15.881969 2.121494 0.718873 -0.000003 0.000004 -0.546434 79.413585 -6.593849 -2.256473 25.898681 7.346964 -0.662143 
47.369202 2.840902 96.006294 -4.190384 4.481534 17.375110 -0.003393 -1.212289 -1.374492 3.968214 -2.437130 -2.737289 5.613140 -2.469735 -2.707916 -10.254439 -36.840708 -13.013190 11.260497 31.249956 -10.196660 -58.902909 -55.521334 -69.823897 -112.558437 -132.850321 -146.453572 0.000006 -0.000020 0.000002 131.280457 6.411403 -33.454198 -0.000006 0.000006 -3.000001 -5.000221 -7.998944 0.000125 9.746899 20.984546 -20.266945 -90.693226 198.130086 71.667187 0.000001 -0.000022 0.000005 -0.087181 -11.717692 0.442267 0.000003 -0.000006 3.069311 -5.000233 7.998795 -0.000137 -3.526381 -181.178786 -0.493765 -179.999991 0.000005 -0.945009 173.240645 -2.353548 -0.380866 -0.000002 0.000001 0.022082 67.689948 6.686836 2.730818 25.456950 -7.355614 0.005699 3.314238 170.967886 -4.735591 -0.000020 -0.000004 -0.910373 -15.876997 2.133763 0.719586 -0.000003 0.000003 -0.544944 79.425251 -6.593608 -2.256777 25.902215 7.346890 -0.667524 
47.375404 2.853205 96.009491 -4.163620 4.518162 17.286063 -0.001159 -1.228550 -1.386677 3.972076 -2.469830 -2.761469 5.617005 -2.502710 -2.731696 -10.494790 -36.805055 -12.992108 11.377846 31.409311 -10.171334 -59.045653 -55.406945 -70.016925 -112.773574 -132.640689 -146.953774 0.000006 -0.000020 0.000004 131.626420 6.452310 -33.904919 -0.000009 0.000004 -3.000000 -5.000217 -7.998946 0.000122 9.722081 20.777222 -20.296266 -90.855695 197.989630 71.631247 0.000001 -0.000023 0.000005 -0.087760 -11.772491 0.435926 0.000001 -0.000005 3.070013 -5.000231 7.998794 -0.000135 -3.562707 -181.206695 -0.513705 -179.999991 0.000005 -0.945008 173.242557 -2.349582 -0.380320 -0.000002 0.000001 0.022489 67.685686 6.693904 2.712975 25.456950 -7.355615 0.005699 3.316335 170.958911 -4.748376 -0.000020 -0.000005 -0.909031 -15.866931 2.147204 0.720112 -0.000004 0.000003 -0.543097 79.433782 -6.593449 -2.256963 25.906552 7.346801 -0.674034 
